# xmcd
#
# Track frame offsets: 
#        150
#        23939
#        52264
#        76429
#        93964
#        122753
#        139769
#        157445
#        172736
#        200618
#        217760
#        232589
#        252991
#        273949
#        294713
#
# Disc length: 4248 seconds
#
# Revision: 1
# Processed by: cddbd v1.5.2PL0 Copyright (c) Steve Scherf et al.
# Submitted via: ExactAudioCopy v0.95b3
#
DISCID=d410960f
DTITLE=Joy - Hits and More - The Remixes and Rarities [HGINT 789]
DYEAR=2011
DGENRE=Euro-Disco
TTITLE0=I'm In Love (Maxi Version)
TTITLE1=Japanese Girl (Sky Mix)
TTITLE2=Fire In The Night (Maxi Version)
TTITLE3=Felicidad (Mediterean Breeze)
TTITLE4=Valerie (Beatbox Maxi Mix)
TTITLE5=Cheek To Cheek
TTITLE6=Gimme Gimme All Of You
TTITLE7=Why Are You Hurtin' Me So Much
TTITLE8=Touch By Touch (87 New Mix)
TTITLE9=Hello, Mrs. Johnson
TTITLE10=Tell It To My Heart
TTITLE11=Nights Of The Nights
TTITLE12=Darlin
TTITLE13=Touch By Touch (Casanoiva Extended Version)
TTITLE14=Hello (Remix)
EXTD=
EXTT0=
EXTT1=
EXTT2=
EXTT3=
EXTT4=
EXTT5=
EXTT6=
EXTT7=
EXTT8=
EXTT9=
EXTT10=
EXTT11=
EXTT12=
EXTT13=
EXTT14=
PLAYORDER=
